<?xml version="1.0" standalone="no"?>
<!DOCTYPE svg PUBLIC "-//W3C//DTD SVG 20010904//EN"
 "http://www.w3.org/TR/2001/REC-SVG-20010904/DTD/svg10.dtd">
<svg version="1.0" xmlns="http://www.w3.org/2000/svg"
 width="500.000000pt" height="500.000000pt" viewBox="0 0 500.000000 500.000000"
 preserveAspectRatio="xMidYMid meet">
<metadata>
Created by potrace 1.13, written by Peter Selinger 2001-2015
</metadata>
<g transform="translate(0.000000,500.000000) scale(0.100000,-0.100000)"
fill="#000000" stroke="none">
<path d="M0 2500 l0 -2500 2500 0 2500 0 0 2500 0 2500 -2500 0 -2500 0 0
-2500z m2840 2435 c706 -109 1313 -495 1702 -1083 202 -306 326 -632 385
-1012 25 -161 25 -529 0 -690 -87 -559 -336 -1047 -728 -1425 -378 -365 -835
-589 -1369 -672 -161 -25 -529 -25 -690 0 -534 83 -991 308 -1369 672 -392
378 -641 866 -728 1425 -25 161 -25 529 0 690 61 389 186 714 398 1029 417
623 1085 1015 1849 1085 96 9 449 -4 550 -19z"/>
<path d="M2470 3015 c-41 -7 -91 -18 -110 -25 -59 -22 -211 -104 -289 -156
-136 -90 -136 -91 -244 -103 -133 -14 -281 -29 -384 -37 -174 -14 -256 -110
-278 -326 -4 -38 -11 -68 -16 -68 -20 0 -7 -54 21 -90 26 -32 40 -41 88 -50
31 -7 67 -14 79 -17 15 -3 28 -19 39 -48 20 -53 82 -117 140 -144 53 -25 136
-28 188 -6 67 28 156 125 156 170 0 35 24 36 592 44 310 4 568 6 575 4 6 -3
15 -19 18 -36 10 -48 61 -122 103 -149 60 -38 90 -48 148 -48 113 0 217 82
245 195 7 28 17 55 21 62 5 6 48 17 96 23 48 7 96 17 107 22 36 19 74 60 80
89 4 16 11 29 17 29 6 0 8 20 4 53 -3 28 -10 99 -15 157 -5 58 -16 121 -24
141 -19 43 -80 100 -164 154 -35 21 -63 43 -63 47 0 4 18 8 40 8 68 0 64 54
-4 64 -303 45 -997 69 -1166 41z m690 -70 c225 -15 410 -34 410 -42 0 -2 -5
-13 -11 -24 -12 -23 -5 -29 110 -111 105 -75 115 -97 119 -271 5 -192 -1 -204
-127 -227 -102 -19 -113 -16 -144 41 -85 150 -287 179 -404 57 -18 -18 -41
-54 -53 -80 -14 -32 -28 -49 -43 -52 -12 -3 -275 -8 -584 -11 l-562 -7 -7 29
c-32 133 -171 223 -298 192 -95 -23 -153 -73 -191 -165 -22 -53 -27 -59 -52
-57 -60 4 -93 15 -102 31 -12 23 20 227 42 269 43 82 80 98 277 117 442 44
406 36 533 120 172 114 312 180 416 195 93 14 442 12 671 -4z m-1443 -611 c53
-40 73 -80 73 -144 0 -135 -133 -219 -255 -160 -48 23 -78 61 -95 117 -18 58
8 131 62 177 47 40 65 46 132 41 33 -3 59 -13 83 -31z m1682 -2 c53 -43 73
-87 69 -154 -9 -132 -135 -205 -255 -147 -75 36 -114 121 -92 202 12 47 82
122 121 130 50 11 122 -4 157 -31z"/>
<path d="M3115 2743 c-71 -1 -249 -7 -395 -13 -146 -5 -336 -10 -422 -11 -136
-1 -161 -3 -180 -19 -19 -15 -20 -20 -9 -34 16 -20 66 -20 446 -6 149 5 420
14 603 20 183 6 339 13 348 17 8 3 14 15 12 27 -3 20 -8 21 -138 21 -74 1
-193 0 -265 -2z"/>
</g>
</svg>
